<svg width="15" height="12" viewBox="0 0 15 12" fill="none" xmlns="http://www.w3.org/2000/svg">
<path d="M10.63 4.43994C10.63 6.52588 8.42688 8.18994 5.755 8.18994C4.79407 8.18994 3.88 7.979 3.13 7.604C2.61438 7.90869 1.91125 8.18994 1.0675 8.18994C0.973755 8.18994 0.92688 8.1665 0.880005 8.09619C0.856567 8.02588 0.880005 7.93213 0.92688 7.88525C0.92688 7.88525 1.4425 7.32275 1.77063 6.59619C1.20813 5.98682 0.880005 5.26025 0.880005 4.43994C0.880005 2.37744 3.05969 0.689941 5.755 0.689941C8.42688 0.689941 10.63 2.37744 10.63 4.43994ZM13.4894 9.59619C13.7941 10.3228 14.3097 10.8853 14.3097 10.8853C14.38 10.9321 14.38 11.0259 14.3566 11.0962C14.3331 11.1665 14.2628 11.1899 14.1925 11.1899C13.3253 11.1899 12.6222 10.9087 12.1066 10.604C11.3566 10.979 10.4659 11.1899 9.505 11.1899C7.46594 11.1899 5.73157 10.2524 5.005 8.9165C5.23938 8.93994 5.49719 8.93994 5.755 8.93994C8.84875 8.93994 11.38 6.92432 11.38 4.43994C11.38 4.29932 11.3566 4.13525 11.3331 3.97119C13.1144 4.53369 14.38 5.89307 14.38 7.43994C14.38 8.26025 14.0284 8.98682 13.4894 9.59619Z" fill="#00FCDB"/>
</svg>
