<svg width="18" height="19" viewBox="0 0 18 19" fill="none" xmlns="http://www.w3.org/2000/svg">
<path d="M7.57344 2.11719L8.43281 1.25781C8.82344 0.90625 9.40938 0.90625 9.76094 1.25781L17.3781 8.83594C17.7297 9.22656 17.7297 9.8125 17.3781 10.1641L9.76094 17.7812C9.40938 18.1328 8.82344 18.1328 8.43281 17.7812L7.57344 16.9219C7.22188 16.5312 7.22188 15.9453 7.57344 15.5547L12.3 11.0625H1.08906C0.542188 11.0625 0.151563 10.6719 0.151563 10.125V8.875C0.151563 8.36719 0.542188 7.9375 1.08906 7.9375H12.3L7.57344 3.48438C7.22188 3.09375 7.18281 2.50781 7.57344 2.11719Z" fill="white"/>
</svg>
